<mxfile host="app.diagrams.net" modified="2021-06-07T23:51:09.487Z" agent="5.0 (Macintosh; Intel Mac OS X 10_15_7) AppleWebKit/537.36 (KHTML, like Gecko) Chrome/91.0.4472.77 Safari/537.36" etag="mPFtGq0kki43547A8Rl-" version="14.7.6" type="github">
  <diagram name="Page-1" id="c9db0220-8083-56f3-ca83-edcdcd058819">
    <mxGraphModel dx="1464" dy="1099" grid="1" gridSize="10" guides="1" tooltips="1" connect="1" arrows="1" fold="1" page="1" pageScale="1.5" pageWidth="826" pageHeight="1169" background="none" math="0" shadow="0">
      <root>
        <mxCell id="0" style=";html=1;" />
        <mxCell id="1" style=";html=1;" parent="0" />
        <mxCell id="3d76a8aef4d5c911-1" value="" style="html=1;shadow=0;dashed=0;shape=mxgraph.bootstrap.rect;fillColor=#6a00ff;strokeColor=#3700CC;whiteSpace=wrap;rounded=0;fontSize=12;fontColor=#ffffff;align=center;" parent="1" vertex="1">
          <mxGeometry width="1220" height="40" as="geometry" />
        </mxCell>
        <mxCell id="3d76a8aef4d5c911-2" value="&lt;font style=&quot;font-size: 30px&quot;&gt;Blenda Orellana&lt;/font&gt;&amp;nbsp;" style="html=1;shadow=0;dashed=0;fillColor=#6a00ff;strokeColor=#3700CC;shape=mxgraph.bootstrap.rect;fontColor=#ffffff;fontSize=22;whiteSpace=wrap;" parent="3d76a8aef4d5c911-1" vertex="1">
          <mxGeometry width="793.0000000000001" height="40" as="geometry" />
        </mxCell>
        <mxCell id="3d76a8aef4d5c911-8" value="&lt;font style=&quot;font-size: 15px&quot;&gt;About Me&lt;span style=&quot;white-space: pre&quot;&gt;	&lt;/span&gt;&lt;/font&gt;" style="html=1;shadow=0;dashed=0;shape=mxgraph.bootstrap.rect;whiteSpace=wrap;fillColor=#1ba1e2;strokeColor=#006EAF;fontColor=#ffffff;" parent="3d76a8aef4d5c911-1" vertex="1">
          <mxGeometry x="675.4000000000001" width="102.30208333333334" height="40" as="geometry" />
        </mxCell>
        <mxCell id="3d76a8aef4d5c911-9" value="Work&amp;nbsp;" style="html=1;shadow=0;dashed=0;fillColor=#1ba1e2;strokeColor=#006EAF;shape=mxgraph.bootstrap.rect;fontColor=#ffffff;whiteSpace=wrap;fontSize=15;" parent="3d76a8aef4d5c911-1" vertex="1">
          <mxGeometry x="777.6971666666668" width="102.30208333333334" height="40" as="geometry" />
        </mxCell>
        <mxCell id="IxUSZUHJjQwEmD-EJl2d-3" value="Contact Me" style="html=1;shadow=0;dashed=0;fillColor=#1ba1e2;strokeColor=#006EAF;shape=mxgraph.bootstrap.rect;fontColor=#ffffff;whiteSpace=wrap;fontSize=15;" vertex="1" parent="3d76a8aef4d5c911-1">
          <mxGeometry x="1118.333333333333" width="102.30208333333334" height="40" as="geometry" />
        </mxCell>
        <mxCell id="IxUSZUHJjQwEmD-EJl2d-4" value="Resume" style="html=1;shadow=0;dashed=0;fillColor=#1ba1e2;strokeColor=#006EAF;shape=mxgraph.bootstrap.rect;fontColor=#ffffff;whiteSpace=wrap;fontSize=15;" vertex="1" parent="3d76a8aef4d5c911-1">
          <mxGeometry x="880" width="118.24" height="40" as="geometry" />
        </mxCell>
        <mxCell id="IxUSZUHJjQwEmD-EJl2d-20" value="Applications" style="html=1;shadow=0;dashed=0;fillColor=#1ba1e2;strokeColor=#006EAF;shape=mxgraph.bootstrap.rect;fontColor=#ffffff;whiteSpace=wrap;fontSize=15;" vertex="1" parent="3d76a8aef4d5c911-1">
          <mxGeometry x="998.2443333333334" width="120.08866666666668" height="40" as="geometry" />
        </mxCell>
        <mxCell id="IxUSZUHJjQwEmD-EJl2d-5" value="Photo" style="whiteSpace=wrap;html=1;aspect=fixed;fontSize=22;" vertex="1" parent="1">
          <mxGeometry x="460" y="80" width="240" height="240" as="geometry" />
        </mxCell>
        <mxCell id="IxUSZUHJjQwEmD-EJl2d-16" value="" style="group" vertex="1" connectable="0" parent="1">
          <mxGeometry x="240" y="330" width="610" height="1260" as="geometry" />
        </mxCell>
        <mxCell id="IxUSZUHJjQwEmD-EJl2d-23" value="" style="whiteSpace=wrap;html=1;aspect=fixed;fontSize=25;strokeColor=#050505;strokeWidth=2;align=center;" vertex="1" parent="IxUSZUHJjQwEmD-EJl2d-16">
          <mxGeometry x="20" y="1030" width="210" height="210" as="geometry" />
        </mxCell>
        <mxCell id="IxUSZUHJjQwEmD-EJl2d-28" value="" style="group" vertex="1" connectable="0" parent="IxUSZUHJjQwEmD-EJl2d-16">
          <mxGeometry x="90" y="10" width="610" height="940" as="geometry" />
        </mxCell>
        <mxCell id="3d76a8aef4d5c911-20" value="About Me" style="html=1;shadow=0;dashed=0;shape=mxgraph.bootstrap.rrect;rSize=5;strokeColor=#3700CC;align=center;spacingLeft=10;fontSize=30;whiteSpace=wrap;rounded=0;fillColor=#6a00ff;fontColor=#ffffff;" parent="IxUSZUHJjQwEmD-EJl2d-28" vertex="1">
          <mxGeometry x="120" width="360" height="80" as="geometry" />
        </mxCell>
        <mxCell id="3d76a8aef4d5c911-24" value="" style="html=1;shadow=0;dashed=0;shape=mxgraph.bootstrap.rrect;rSize=5;fontSize=12;align=left;spacing=10;verticalAlign=top;whiteSpace=wrap;rounded=0;strokeWidth=2;strokeColor=#050505;" parent="IxUSZUHJjQwEmD-EJl2d-28" vertex="1">
          <mxGeometry x="10" y="120" width="600" height="200" as="geometry" />
        </mxCell>
        <mxCell id="IxUSZUHJjQwEmD-EJl2d-1" value="Text" style="text;html=1;strokeColor=none;fillColor=none;align=center;verticalAlign=middle;whiteSpace=wrap;rounded=0;" vertex="1" parent="IxUSZUHJjQwEmD-EJl2d-28">
          <mxGeometry x="290" y="175" width="40" height="20" as="geometry" />
        </mxCell>
        <mxCell id="IxUSZUHJjQwEmD-EJl2d-8" value="Work" style="html=1;shadow=0;dashed=0;shape=mxgraph.bootstrap.rrect;rSize=5;strokeColor=#3700CC;align=center;spacingLeft=10;fontSize=25;whiteSpace=wrap;rounded=0;fillColor=#6a00ff;fontColor=#ffffff;" vertex="1" parent="IxUSZUHJjQwEmD-EJl2d-28">
          <mxGeometry x="170" y="360" width="280" height="40" as="geometry" />
        </mxCell>
        <mxCell id="IxUSZUHJjQwEmD-EJl2d-11" value="" style="html=1;shadow=0;dashed=0;shape=mxgraph.bootstrap.rrect;rSize=5;fontSize=12;align=left;spacing=10;verticalAlign=top;whiteSpace=wrap;rounded=0;strokeWidth=2;strokeColor=#050505;" vertex="1" parent="IxUSZUHJjQwEmD-EJl2d-28">
          <mxGeometry x="10" y="440" width="600" height="200" as="geometry" />
        </mxCell>
        <mxCell id="IxUSZUHJjQwEmD-EJl2d-12" value="Resume" style="html=1;shadow=0;dashed=0;shape=mxgraph.bootstrap.rrect;rSize=5;strokeColor=#3700CC;align=center;spacingLeft=10;fontSize=25;whiteSpace=wrap;rounded=0;fillColor=#6a00ff;fontColor=#ffffff;" vertex="1" parent="IxUSZUHJjQwEmD-EJl2d-28">
          <mxGeometry x="170" y="677" width="290" height="40" as="geometry" />
        </mxCell>
        <mxCell id="IxUSZUHJjQwEmD-EJl2d-21" value="" style="html=1;shadow=0;dashed=0;shape=mxgraph.bootstrap.rrect;rSize=5;fontSize=12;align=left;spacing=10;verticalAlign=top;whiteSpace=wrap;rounded=0;strokeWidth=2;strokeColor=#050505;" vertex="1" parent="IxUSZUHJjQwEmD-EJl2d-28">
          <mxGeometry y="740" width="600" height="200" as="geometry" />
        </mxCell>
        <mxCell id="IxUSZUHJjQwEmD-EJl2d-29" value="" style="group" vertex="1" connectable="0" parent="IxUSZUHJjQwEmD-EJl2d-16">
          <mxGeometry x="259" y="980" width="380" height="230" as="geometry" />
        </mxCell>
        <mxCell id="IxUSZUHJjQwEmD-EJl2d-22" value="Apps" style="html=1;shadow=0;dashed=0;shape=mxgraph.bootstrap.rrect;rSize=5;strokeColor=#3700CC;align=center;spacingLeft=10;fontSize=25;whiteSpace=wrap;rounded=0;fillColor=#6a00ff;fontColor=#ffffff;" vertex="1" parent="IxUSZUHJjQwEmD-EJl2d-29">
          <mxGeometry width="290" height="40" as="geometry" />
        </mxCell>
        <mxCell id="IxUSZUHJjQwEmD-EJl2d-24" value="" style="whiteSpace=wrap;html=1;aspect=fixed;fontSize=25;strokeColor=#050505;strokeWidth=2;align=center;" vertex="1" parent="IxUSZUHJjQwEmD-EJl2d-29">
          <mxGeometry x="30" y="80" width="150" height="150" as="geometry" />
        </mxCell>
        <mxCell id="IxUSZUHJjQwEmD-EJl2d-25" value="" style="whiteSpace=wrap;html=1;aspect=fixed;fontSize=25;strokeColor=#050505;strokeWidth=2;align=center;" vertex="1" parent="IxUSZUHJjQwEmD-EJl2d-29">
          <mxGeometry x="230" y="80" width="150" height="150" as="geometry" />
        </mxCell>
        <mxCell id="IxUSZUHJjQwEmD-EJl2d-14" value="Contact Me" style="html=1;shadow=0;dashed=0;shape=mxgraph.bootstrap.rrect;rSize=5;strokeColor=#3700CC;align=center;spacingLeft=10;fontSize=25;whiteSpace=wrap;rounded=0;fillColor=#6a00ff;fontColor=#ffffff;" vertex="1" parent="1">
          <mxGeometry x="320" y="1620" width="280" height="40" as="geometry" />
        </mxCell>
        <mxCell id="IxUSZUHJjQwEmD-EJl2d-26" value="" style="whiteSpace=wrap;html=1;aspect=fixed;fontSize=25;strokeColor=#050505;strokeWidth=2;align=center;" vertex="1" parent="1">
          <mxGeometry x="920" y="1390" width="150" height="150" as="geometry" />
        </mxCell>
        <mxCell id="IxUSZUHJjQwEmD-EJl2d-27" value="" style="rounded=0;whiteSpace=wrap;html=1;fontSize=25;strokeColor=#050505;strokeWidth=2;align=center;" vertex="1" parent="1">
          <mxGeometry x="150" y="1680" width="640" height="60" as="geometry" />
        </mxCell>
      </root>
    </mxGraphModel>
  </diagram>
</mxfile>
